{"title":"Alan Walker - Faded [FLAC]","uid":15600880,"size":53025320,"categoryP":"audio","categoryS":"flac","magnet":"?xt=urn:btih:3dc53b91cd544ac21f58a6dec7a39e9732da807c&amp;dn=Alan+Walker+-+Faded+%5BFLAC%5D&amp;tr=udp%3A%2F%2Ftracker.leechers-paradise.org%3A6969&amp;tr=udp%3A%2F%2Fzer0day.ch%3A1337&amp;tr=udp%3A%2F%2Fopen.demonii.com%3A1337&amp;tr=udp%3A%2F%2Ftracker.coppersurfer.tk%3A6969&amp;tr=udp%3A%2F%2Fexodus.desync.com%3A6969","seeders":14,"leechers":2,"uploader":"312c","files":2,"time":1471642578,"description":"Tracklist:\r\n  Alan Walker - 01. Faded.flac\r\n  Alan Walker - 02. Faded (Instrumental).flac\r\n\r\nMediainfo:\r\n\r\nGeneral\r\nComplete name                            : Alan Walker - 01. Faded.flac\r\nFormat                                   : FLAC\r\nFormat/Info                              : Free Lossless Audio Codec\r\nFile size                                : 25.9 MiB\r\nDuration                                 : 3 min\r\nOverall bit rate mode                    : Variable\r\nOverall bit rate                         : 1 023 kb/s\r\nAlbum                                    : Faded\r\nAlbum/Performer                          : Alan Walker\r\nPart                                     : 1\r\nPart/Total                               : 1\r\nTrack name                               : Faded\r\nTrack name/Position                      : 1\r\nTrack name/Total                         : 2\r\nPerformer                                : Alan Walker\r\nGenre                                    : Dance/House/Techno\r\nDescription                              : Purchased from 7digital.com\r\nRecorded date                            : 2015\r\nCopyright                                : (P) 2015 MER Musikk under exclusive license to Sony Music Entertainment Sweden AB\r\nCover                                    : Yes\r\nCover description                        : cover.jpg\r\nCover type                               : Cover (front)\r\nCover MIME                               : image/jpeg\r\n\r\nAudio\r\nFormat                                   : FLAC\r\nFormat/Info                              : Free Lossless Audio Codec\r\nDuration                                 : 3 min\r\nBit rate mode                            : Variable\r\nBit rate                                 : 1 019 kb/s\r\nChannel(s)                               : 2 channels\r\nChannel positions                        : Front: L R\r\nSampling rate                            : 44.1 kHz\r\nBit depth                                : 16 bits\r\nStream size                              : 25.8 MiB (100%)\r\n\r\nGeneral\r\nComplete name                            : Alan Walker - 02. Faded (Instrumental).flac\r\nFormat                                   : FLAC\r\nFormat/Info                              : Free Lossless Audio Codec\r\nFile size                                : 24.6 MiB\r\nDuration                                 : 3 min\r\nOverall bit rate mode                    : Variable\r\nOverall bit rate                         : 958 kb/s\r\nAlbum                                    : Faded\r\nAlbum/Performer                          : Alan Walker\r\nPart                                     : 1\r\nPart/Total                               : 1\r\nTrack name                               : Faded (Instrumental)\r\nTrack name/Position                      : 2\r\nTrack name/Total                         : 2\r\nPerformer                                : Alan Walker\r\nGenre                                    : Dance/House/Techno\r\nDescription                              : Purchased from 7digital.com\r\nRecorded date                            : 2015\r\nCopyright                                : (P) 2015 MER Musikk under exclusive license to Sony Music Entertainment Sweden AB\r\nCover                                    : Yes\r\nCover description                        : cover.jpg\r\nCover type                               : Cover (front)\r\nCover MIME                               : image/jpeg\r\n\r\nAudio\r\nFormat                                   : FLAC\r\nFormat/Info                              : Free Lossless Audio Codec\r\nDuration                                 : 3 min\r\nBit rate mode                            : Variable\r\nBit rate                                 : 955 kb/s\r\nChannel(s)                               : 2 channels\r\nChannel positions                        : Front: L R\r\nSampling rate                            : 44.1 kHz\r\nBit depth                                : 16 bits\r\nStream size                              : 24.6 MiB (100%)\r\n\r\n\r\nEnjoy!","torrent":{"xt":"urn:btih:3dc53b91cd544ac21f58a6dec7a39e9732da807c","amp;dn":"Alan+Walker+-+Faded+%5BFLAC%5D","amp;tr":["udp%3A%2F%2Ftracker.leechers-paradise.org%3A6969","udp%3A%2F%2Fzer0day.ch%3A1337","udp%3A%2F%2Fopen.demonii.com%3A1337","udp%3A%2F%2Ftracker.coppersurfer.tk%3A6969","udp%3A%2F%2Fexodus.desync.com%3A6969"],"infoHash":"3dc53b91cd544ac21f58a6dec7a39e9732da807c","infoHashBuffer":{"type":"Buffer","data":[61,197,59,145,205,84,74,194,31,88,166,222,199,163,158,151,50,218,128,124]},"announce":[],"urlList":[]}}